<?xml version="1.0" encoding="UTF-8" standalone="no"?>
<!DOCTYPE svg PUBLIC "-//W3C//DTD SVG 1.1//EN"
 "http://www.w3.org/Graphics/SVG/1.1/DTD/svg11.dtd">
<!-- Generated by graphviz version 14.1.2 (0)
 -->
<!-- Title: computation_graph Pages: 1 -->
<svg width="688pt" height="2142pt"
 viewBox="0.00 0.00 688.00 2142.00" xmlns="http://www.w3.org/2000/svg" xmlns:xlink="http://www.w3.org/1999/xlink">
<g id="graph0" class="graph" transform="scale(4.16667 4.16667) rotate(0) translate(4 510)">
<title>computation_graph</title>
<polygon fill="white" stroke="none" points="-4,4 -4,-510 161,-510 161,4 -4,4"/>
<!-- 0 -->
<g id="node1" class="node">
<title>0</title>
<polygon fill="lightyellow" stroke="none" points="68.5,-479 0,-479 0,-423 68.5,-423 68.5,-479"/>
<polygon fill="none" stroke="black" points="0,-445 0,-479 68.5,-479 68.5,-445 0,-445"/>
<text xml:space="preserve" text-anchor="start" x="23.38" y="-464.5" font-family="Arial" font-size="10.00">Input</text>
<text xml:space="preserve" text-anchor="start" x="18.12" y="-452.5" font-family="Arial" font-size="10.00">depth:0</text>
<polygon fill="none" stroke="black" points="0,-423 0,-445 68.5,-445 68.5,-423 0,-423"/>
<text xml:space="preserve" text-anchor="start" x="5" y="-430.5" font-family="Arial" font-size="10.00">Shape: (100,)</text>
</g>
<!-- 1 -->
<g id="node2" class="node">
<title>1</title>
<polygon fill="#c1ffc1" stroke="none" points="156.25,-506 86.25,-506 86.25,-396 156.25,-396 156.25,-506"/>
<polygon fill="none" stroke="black" points="86.25,-484 86.25,-506 156.25,-506 156.25,-484 86.25,-484"/>
<text xml:space="preserve" text-anchor="start" x="107" y="-491.5" font-family="Arial" font-size="10.00">Dense</text>
<polygon fill="none" stroke="black" points="86.25,-462 86.25,-484 156.25,-484 156.25,-462 86.25,-462"/>
<text xml:space="preserve" text-anchor="start" x="95" y="-469.5" font-family="Arial" font-size="10.00">Input: (100,)</text>
<polygon fill="none" stroke="black" points="86.25,-440 86.25,-462 156.25,-462 156.25,-440 86.25,-440"/>
<text xml:space="preserve" text-anchor="start" x="93.88" y="-447.5" font-family="Arial" font-size="10.00">Output: (64,)</text>
<polygon fill="none" stroke="black" points="86.25,-418 86.25,-440 156.25,-440 156.25,-418 86.25,-418"/>
<text xml:space="preserve" text-anchor="start" x="91.25" y="-425.5" font-family="Arial" font-size="10.00">Params: 6.5K</text>
<polygon fill="none" stroke="black" points="86.25,-396 86.25,-418 156.25,-418 156.25,-396 86.25,-396"/>
<text xml:space="preserve" text-anchor="start" x="105.12" y="-403.5" font-family="Arial" font-size="10.00">depth:0</text>
</g>
<!-- 2 -->
<g id="node3" class="node">
<title>2</title>
<polygon fill="#c1ffc1" stroke="none" points="153.62,-388 88.88,-388 88.88,-300 153.62,-300 153.62,-388"/>
<polygon fill="none" stroke="black" points="88.88,-366 88.88,-388 153.62,-388 153.62,-366 88.88,-366"/>
<text xml:space="preserve" text-anchor="start" x="104" y="-373.5" font-family="Arial" font-size="10.00">Dropout</text>
<polygon fill="none" stroke="black" points="88.88,-344 88.88,-366 153.62,-366 153.62,-344 88.88,-344"/>
<text xml:space="preserve" text-anchor="start" x="97.62" y="-351.5" font-family="Arial" font-size="10.00">Input: (64,)</text>
<polygon fill="none" stroke="black" points="88.88,-322 88.88,-344 153.62,-344 153.62,-322 88.88,-322"/>
<text xml:space="preserve" text-anchor="start" x="93.88" y="-329.5" font-family="Arial" font-size="10.00">Output: (64,)</text>
<polygon fill="none" stroke="black" points="88.88,-300 88.88,-322 153.62,-322 153.62,-300 88.88,-300"/>
<text xml:space="preserve" text-anchor="start" x="105.12" y="-307.5" font-family="Arial" font-size="10.00">depth:0</text>
</g>
<!-- 1&#45;&gt;2 -->
<g id="edge1" class="edge">
<title>1&#45;&gt;2</title>
<path fill="none" stroke="black" d="M121.25,-396.27C121.25,-396.18 121.25,-396.09 121.25,-396"/>
<polygon fill="black" stroke="black" points="124.75,-399.35 121.25,-389.35 117.75,-399.35 124.75,-399.35"/>
</g>
<!-- 3 -->
<g id="node4" class="node">
<title>3</title>
<polygon fill="#c1ffc1" stroke="none" points="156.25,-292 86.25,-292 86.25,-182 156.25,-182 156.25,-292"/>
<polygon fill="none" stroke="black" points="86.25,-270 86.25,-292 156.25,-292 156.25,-270 86.25,-270"/>
<text xml:space="preserve" text-anchor="start" x="107" y="-277.5" font-family="Arial" font-size="10.00">Dense</text>
<polygon fill="none" stroke="black" points="86.25,-248 86.25,-270 156.25,-270 156.25,-248 86.25,-248"/>
<text xml:space="preserve" text-anchor="start" x="97.62" y="-255.5" font-family="Arial" font-size="10.00">Input: (64,)</text>
<polygon fill="none" stroke="black" points="86.25,-226 86.25,-248 156.25,-248 156.25,-226 86.25,-226"/>
<text xml:space="preserve" text-anchor="start" x="93.88" y="-233.5" font-family="Arial" font-size="10.00">Output: (32,)</text>
<polygon fill="none" stroke="black" points="86.25,-204 86.25,-226 156.25,-226 156.25,-204 86.25,-204"/>
<text xml:space="preserve" text-anchor="start" x="91.25" y="-211.5" font-family="Arial" font-size="10.00">Params: 2.1K</text>
<polygon fill="none" stroke="black" points="86.25,-182 86.25,-204 156.25,-204 156.25,-182 86.25,-182"/>
<text xml:space="preserve" text-anchor="start" x="105.12" y="-189.5" font-family="Arial" font-size="10.00">depth:0</text>
</g>
<!-- 2&#45;&gt;3 -->
<g id="edge2" class="edge">
<title>2&#45;&gt;3</title>
<path fill="none" stroke="black" d="M121.25,-300.29C121.25,-300.2 121.25,-300.12 121.25,-300.03"/>
<polygon fill="black" stroke="black" points="124.75,-303.21 121.25,-293.21 117.75,-303.21 124.75,-303.21"/>
</g>
<!-- 4 -->
<g id="node5" class="node">
<title>4</title>
<polygon fill="#c1ffc1" stroke="none" points="154,-174 88.5,-174 88.5,-64 154,-64 154,-174"/>
<polygon fill="none" stroke="black" points="88.5,-152 88.5,-174 154,-174 154,-152 88.5,-152"/>
<text xml:space="preserve" text-anchor="start" x="107" y="-159.5" font-family="Arial" font-size="10.00">Dense</text>
<polygon fill="none" stroke="black" points="88.5,-130 88.5,-152 154,-152 154,-130 88.5,-130"/>
<text xml:space="preserve" text-anchor="start" x="97.62" y="-137.5" font-family="Arial" font-size="10.00">Input: (32,)</text>
<polygon fill="none" stroke="black" points="88.5,-108 88.5,-130 154,-130 154,-108 88.5,-108"/>
<text xml:space="preserve" text-anchor="start" x="93.88" y="-115.5" font-family="Arial" font-size="10.00">Output: (10,)</text>
<polygon fill="none" stroke="black" points="88.5,-86 88.5,-108 154,-108 154,-86 88.5,-86"/>
<text xml:space="preserve" text-anchor="start" x="93.5" y="-93.5" font-family="Arial" font-size="10.00">Params: 330</text>
<polygon fill="none" stroke="black" points="88.5,-64 88.5,-86 154,-86 154,-64 88.5,-64"/>
<text xml:space="preserve" text-anchor="start" x="105.12" y="-71.5" font-family="Arial" font-size="10.00">depth:0</text>
</g>
<!-- 3&#45;&gt;4 -->
<g id="edge3" class="edge">
<title>3&#45;&gt;4</title>
<path fill="none" stroke="black" d="M121.25,-182.08C121.25,-181.99 121.25,-181.91 121.25,-181.82"/>
<polygon fill="black" stroke="black" points="124.75,-185.41 121.25,-175.41 117.75,-185.41 124.75,-185.41"/>
</g>
<!-- 5 -->
<g id="node6" class="node">
<title>5</title>
<polygon fill="lightyellow" stroke="none" points="157,-56 85.5,-56 85.5,0 157,0 157,-56"/>
<polygon fill="none" stroke="black" points="85.5,-22 85.5,-56 157,-56 157,-22 85.5,-22"/>
<text xml:space="preserve" text-anchor="start" x="90.5" y="-41.5" font-family="Arial" font-size="10.00">Output_output</text>
<text xml:space="preserve" text-anchor="start" x="105.12" y="-29.5" font-family="Arial" font-size="10.00">depth:0</text>
<polygon fill="none" stroke="black" points="85.5,0 85.5,-22 157,-22 157,0 85.5,0"/>
<text xml:space="preserve" text-anchor="start" x="94.62" y="-7.5" font-family="Arial" font-size="10.00">Shape: (10,)</text>
</g>
<!-- 4&#45;&gt;5 -->
<g id="edge4" class="edge">
<title>4&#45;&gt;5</title>
<path fill="none" stroke="black" d="M121.25,-64.18C121.25,-64.08 121.25,-63.99 121.25,-63.9"/>
<polygon fill="black" stroke="black" points="124.75,-67.13 121.25,-57.13 117.75,-67.13 124.75,-67.13"/>
</g>
</g>
</svg>
